<mxfile host="app.diagrams.net" modified="2024-02-20T11:07:51.219Z" agent="Mozilla/5.0 (Windows NT 10.0; Win64; x64) AppleWebKit/537.36 (KHTML, like Gecko) Chrome/121.0.0.0 Safari/537.36" etag="Is0Enk8Jc1pOMvYuzeNr" version="23.1.5" type="device">
  <diagram name="Страница — 1" id="XC__gPiorW4o4jhYyFbl">
    <mxGraphModel dx="1434" dy="1949" grid="1" gridSize="10" guides="1" tooltips="1" connect="1" arrows="1" fold="1" page="1" pageScale="1" pageWidth="827" pageHeight="1169" math="0" shadow="0">
      <root>
        <mxCell id="0" />
        <mxCell id="1" parent="0" />
        <mxCell id="pGYxOll9Prf7aH_h9H1Q-2" value="Начало" style="rounded=1;whiteSpace=wrap;html=1;" vertex="1" parent="1">
          <mxGeometry x="320" y="-120" width="120" height="40" as="geometry" />
        </mxCell>
        <mxCell id="pGYxOll9Prf7aH_h9H1Q-3" value="Ввод сроков и суммы кредита" style="shape=parallelogram;perimeter=parallelogramPerimeter;whiteSpace=wrap;html=1;fixedSize=1;" vertex="1" parent="1">
          <mxGeometry x="302" y="-40" width="150" height="50" as="geometry" />
        </mxCell>
        <mxCell id="pGYxOll9Prf7aH_h9H1Q-4" value="Расчет суммы переплаты, общей суммы кредита" style="shape=process;whiteSpace=wrap;html=1;backgroundOutline=1;" vertex="1" parent="1">
          <mxGeometry x="307" y="50" width="140" height="50" as="geometry" />
        </mxCell>
        <mxCell id="pGYxOll9Prf7aH_h9H1Q-5" value="Одобрение/отказ по кредиту" style="shape=process;whiteSpace=wrap;html=1;backgroundOutline=1;" vertex="1" parent="1">
          <mxGeometry x="307" y="140" width="140" height="50" as="geometry" />
        </mxCell>
        <mxCell id="pGYxOll9Prf7aH_h9H1Q-6" value="" style="endArrow=classic;html=1;rounded=0;exitX=0.5;exitY=1;exitDx=0;exitDy=0;entryX=0.5;entryY=0;entryDx=0;entryDy=0;" edge="1" parent="1" source="pGYxOll9Prf7aH_h9H1Q-2" target="pGYxOll9Prf7aH_h9H1Q-3">
          <mxGeometry width="50" height="50" relative="1" as="geometry">
            <mxPoint x="640" y="130" as="sourcePoint" />
            <mxPoint x="690" y="80" as="targetPoint" />
          </mxGeometry>
        </mxCell>
        <mxCell id="pGYxOll9Prf7aH_h9H1Q-7" value="" style="endArrow=classic;html=1;rounded=0;exitX=0.5;exitY=1;exitDx=0;exitDy=0;entryX=0.5;entryY=0;entryDx=0;entryDy=0;" edge="1" parent="1" source="pGYxOll9Prf7aH_h9H1Q-3" target="pGYxOll9Prf7aH_h9H1Q-4">
          <mxGeometry width="50" height="50" relative="1" as="geometry">
            <mxPoint x="640" y="130" as="sourcePoint" />
            <mxPoint x="690" y="80" as="targetPoint" />
          </mxGeometry>
        </mxCell>
        <mxCell id="pGYxOll9Prf7aH_h9H1Q-9" value="" style="endArrow=classic;html=1;rounded=0;entryX=0.5;entryY=0;entryDx=0;entryDy=0;exitX=0.5;exitY=1;exitDx=0;exitDy=0;" edge="1" parent="1" source="pGYxOll9Prf7aH_h9H1Q-20" target="pGYxOll9Prf7aH_h9H1Q-18">
          <mxGeometry width="50" height="50" relative="1" as="geometry">
            <mxPoint x="377" y="340" as="sourcePoint" />
            <mxPoint x="374" y="410" as="targetPoint" />
          </mxGeometry>
        </mxCell>
        <mxCell id="pGYxOll9Prf7aH_h9H1Q-10" value="" style="endArrow=classic;html=1;rounded=0;entryX=0.5;entryY=0;entryDx=0;entryDy=0;exitX=0;exitY=0.5;exitDx=0;exitDy=0;" edge="1" parent="1" source="pGYxOll9Prf7aH_h9H1Q-20" target="pGYxOll9Prf7aH_h9H1Q-14">
          <mxGeometry width="50" height="50" relative="1" as="geometry">
            <mxPoint x="280" y="325" as="sourcePoint" />
            <mxPoint x="190" y="415" as="targetPoint" />
            <Array as="points">
              <mxPoint x="190" y="280" />
            </Array>
          </mxGeometry>
        </mxCell>
        <mxCell id="pGYxOll9Prf7aH_h9H1Q-12" value="Одобрение" style="text;html=1;align=center;verticalAlign=middle;whiteSpace=wrap;rounded=0;" vertex="1" parent="1">
          <mxGeometry x="190" y="320" width="60" height="30" as="geometry" />
        </mxCell>
        <mxCell id="pGYxOll9Prf7aH_h9H1Q-13" value="Отказ" style="text;html=1;align=center;verticalAlign=middle;whiteSpace=wrap;rounded=0;" vertex="1" parent="1">
          <mxGeometry x="370" y="320" width="60" height="30" as="geometry" />
        </mxCell>
        <mxCell id="pGYxOll9Prf7aH_h9H1Q-14" value="Инициирование заявки на кредит" style="shape=process;whiteSpace=wrap;html=1;backgroundOutline=1;" vertex="1" parent="1">
          <mxGeometry x="120" y="370" width="140" height="60" as="geometry" />
        </mxCell>
        <mxCell id="pGYxOll9Prf7aH_h9H1Q-15" value="Заявка в банк" style="shape=document;whiteSpace=wrap;html=1;boundedLbl=1;rotation=0;" vertex="1" parent="1">
          <mxGeometry x="120" y="480" width="140" height="50" as="geometry" />
        </mxCell>
        <mxCell id="pGYxOll9Prf7aH_h9H1Q-16" value="" style="endArrow=classic;html=1;rounded=0;exitX=0.5;exitY=1;exitDx=0;exitDy=0;entryX=0.5;entryY=0;entryDx=0;entryDy=0;" edge="1" parent="1" source="pGYxOll9Prf7aH_h9H1Q-14" target="pGYxOll9Prf7aH_h9H1Q-15">
          <mxGeometry width="50" height="50" relative="1" as="geometry">
            <mxPoint x="630" y="430" as="sourcePoint" />
            <mxPoint x="680" y="380" as="targetPoint" />
          </mxGeometry>
        </mxCell>
        <mxCell id="pGYxOll9Prf7aH_h9H1Q-18" value="Формирование отказа клиенту" style="shape=process;whiteSpace=wrap;html=1;backgroundOutline=1;" vertex="1" parent="1">
          <mxGeometry x="307" y="370" width="140" height="60" as="geometry" />
        </mxCell>
        <mxCell id="pGYxOll9Prf7aH_h9H1Q-19" value="" style="endArrow=classic;html=1;rounded=0;exitX=0.5;exitY=1;exitDx=0;exitDy=0;entryX=0.5;entryY=0;entryDx=0;entryDy=0;" edge="1" parent="1" source="pGYxOll9Prf7aH_h9H1Q-4" target="pGYxOll9Prf7aH_h9H1Q-5">
          <mxGeometry width="50" height="50" relative="1" as="geometry">
            <mxPoint x="640" y="230" as="sourcePoint" />
            <mxPoint x="690" y="180" as="targetPoint" />
          </mxGeometry>
        </mxCell>
        <mxCell id="pGYxOll9Prf7aH_h9H1Q-20" value="Кредит одобрен?" style="rhombus;whiteSpace=wrap;html=1;" vertex="1" parent="1">
          <mxGeometry x="302" y="240" width="150" height="80" as="geometry" />
        </mxCell>
        <mxCell id="pGYxOll9Prf7aH_h9H1Q-21" value="" style="endArrow=classic;html=1;rounded=0;exitX=0.5;exitY=1;exitDx=0;exitDy=0;entryX=0.5;entryY=0;entryDx=0;entryDy=0;" edge="1" parent="1" source="pGYxOll9Prf7aH_h9H1Q-5" target="pGYxOll9Prf7aH_h9H1Q-20">
          <mxGeometry width="50" height="50" relative="1" as="geometry">
            <mxPoint x="640" y="330" as="sourcePoint" />
            <mxPoint x="690" y="280" as="targetPoint" />
          </mxGeometry>
        </mxCell>
        <mxCell id="pGYxOll9Prf7aH_h9H1Q-22" value="Отказной лист" style="shape=document;whiteSpace=wrap;html=1;boundedLbl=1;rotation=0;" vertex="1" parent="1">
          <mxGeometry x="510" y="370" width="150" height="60" as="geometry" />
        </mxCell>
        <mxCell id="pGYxOll9Prf7aH_h9H1Q-23" value="" style="endArrow=classic;html=1;rounded=0;exitX=1;exitY=0.5;exitDx=0;exitDy=0;entryX=0;entryY=0.5;entryDx=0;entryDy=0;" edge="1" parent="1" source="pGYxOll9Prf7aH_h9H1Q-18" target="pGYxOll9Prf7aH_h9H1Q-22">
          <mxGeometry width="50" height="50" relative="1" as="geometry">
            <mxPoint x="640" y="430" as="sourcePoint" />
            <mxPoint x="690" y="380" as="targetPoint" />
          </mxGeometry>
        </mxCell>
        <mxCell id="pGYxOll9Prf7aH_h9H1Q-24" value="" style="endArrow=classic;html=1;rounded=0;exitX=0.5;exitY=1;exitDx=0;exitDy=0;entryX=0.5;entryY=0;entryDx=0;entryDy=0;" edge="1" parent="1" source="pGYxOll9Prf7aH_h9H1Q-18" target="pGYxOll9Prf7aH_h9H1Q-25">
          <mxGeometry width="50" height="50" relative="1" as="geometry">
            <mxPoint x="640" y="430" as="sourcePoint" />
            <mxPoint x="377" y="500" as="targetPoint" />
          </mxGeometry>
        </mxCell>
        <mxCell id="pGYxOll9Prf7aH_h9H1Q-25" value="Конец" style="rounded=1;whiteSpace=wrap;html=1;" vertex="1" parent="1">
          <mxGeometry x="317" y="480" width="120" height="40" as="geometry" />
        </mxCell>
      </root>
    </mxGraphModel>
  </diagram>
</mxfile>
